<svg width="28" height="28" viewBox="0 0 28 28" fill="none" xmlns="http://www.w3.org/2000/svg">
<path d="M15.5 28C8.7345 28 3.25 21.732 3.25 14C3.25 6.268 8.7345 0 15.5 0C22.2655 0 27.75 6.268 27.75 14C27.75 21.732 22.2655 28 15.5 28Z" fill="#FFD949"/>
<path d="M3.25 14C3.25 6.849 7.9425 0.954 14 0.108C13.508 0.0395 13.008 0 12.5 0C5.7345 0 0.25 6.268 0.25 14C0.25 21.732 5.7345 28 12.5 28C13.008 28 13.508 27.9605 14 27.892C7.9425 27.046 3.25 21.151 3.25 14Z" fill="#F4BF1A"/>
<path d="M15.5425 25.262H15.4995C15.1495 25.262 14.797 25.241 14.452 25.2C14.1775 25.167 13.982 24.9185 14.0145 24.644C14.0475 24.3695 14.298 24.178 14.5705 24.207C14.8765 24.2435 15.189 24.262 15.4995 24.262C15.776 24.262 16.021 24.486 16.021 24.762C16.021 25.038 15.8195 25.262 15.5425 25.262ZM18.45 24.7235C18.248 24.7235 18.0575 24.6 17.982 24.3995C17.8845 24.141 18.015 23.8525 18.2735 23.7555C18.5615 23.647 18.849 23.5195 19.1265 23.377C19.3725 23.25 19.6735 23.3475 19.8 23.5935C19.926 23.839 19.829 24.1405 19.583 24.2665C19.2715 24.4265 18.95 24.5685 18.626 24.691C18.5685 24.713 18.509 24.7235 18.45 24.7235ZM11.6825 24.3415C11.6065 24.3415 11.529 24.324 11.4565 24.287C11.149 24.1305 10.8445 23.955 10.552 23.763C10.321 23.612 10.2565 23.3025 10.4075 23.071C10.5595 22.8405 10.8685 22.7755 11.1 22.9265C11.3615 23.098 11.634 23.256 11.909 23.3955C12.155 23.5205 12.2535 23.8215 12.1285 24.0675C12.0405 24.2415 11.8645 24.3415 11.6825 24.3415ZM21.7375 22.5625C21.6105 22.5625 21.483 22.514 21.3855 22.4175C21.1895 22.223 21.188 21.9065 21.3825 21.7105C21.6 21.4915 21.8115 21.2555 22.011 21.0095C22.1855 20.7955 22.5005 20.763 22.7145 20.937C22.9285 21.111 22.9615 21.426 22.787 21.6405C22.5665 21.9115 22.333 22.172 22.0925 22.4145C21.9945 22.513 21.8655 22.5625 21.7375 22.5625ZM8.6285 21.8585C8.484 21.8585 8.3405 21.796 8.2415 21.676C8.0245 21.411 7.816 21.131 7.6225 20.8435C7.468 20.6145 7.5285 20.3035 7.7575 20.149C7.986 19.9945 8.297 20.0545 8.4515 20.284C8.628 20.546 8.8175 20.801 9.015 21.0415C9.19 21.255 9.159 21.57 8.9455 21.7455C8.853 21.8215 8.74 21.8585 8.6285 21.8585ZM23.9355 19.29C23.8685 19.29 23.801 19.2765 23.736 19.2485C23.4825 19.138 23.367 18.8435 23.477 18.59C23.6025 18.303 23.717 18.005 23.8175 17.7055C23.9055 17.4445 24.189 17.303 24.451 17.391C24.7125 17.4795 24.8535 17.7625 24.7655 18.0245C24.6555 18.351 24.5305 18.676 24.394 18.9895C24.3115 19.1775 24.1275 19.29 23.9355 19.29ZM6.7225 18.4065C6.5145 18.4065 6.32 18.275 6.249 18.0675C6.1385 17.7435 6.0405 17.41 5.9575 17.076C5.8905 16.808 6.0535 16.537 6.3215 16.4705C6.5885 16.4025 6.861 16.5665 6.9275 16.8345C7.004 17.141 7.094 17.4475 7.1955 17.7445C7.2845 18.006 7.145 18.29 6.884 18.379C6.831 18.3975 6.776 18.4065 6.7225 18.4065ZM24.88 15.458C24.867 15.458 24.854 15.4575 24.841 15.4565C24.5655 15.435 24.36 15.1945 24.381 14.919C24.4045 14.616 24.4165 14.3065 24.4165 14C24.4165 13.724 24.6405 13.484 24.9165 13.484C25.1925 13.484 25.4165 13.6915 25.4165 13.9675V14C25.4165 14.3325 25.4035 14.6675 25.378 14.9965C25.358 15.2585 25.1385 15.458 24.88 15.458ZM6.083 14.5055C5.807 14.5055 5.583 14.287 5.583 14.011V14C5.583 13.659 5.5965 13.316 5.623 12.9815C5.645 12.7065 5.8845 12.5025 6.161 12.5225C6.4365 12.5445 6.642 12.7855 6.62 13.0605C6.5955 13.3695 6.583 13.6855 6.583 14C6.583 14.276 6.359 14.5055 6.083 14.5055ZM24.551 11.524C24.3275 11.524 24.124 11.373 24.067 11.1465C23.9895 10.839 23.899 10.533 23.797 10.236C23.7075 9.97501 23.847 9.69051 24.108 9.60101C24.3695 9.51051 24.654 9.65051 24.743 9.91201C24.854 10.235 24.9525 10.568 25.0365 10.9015C25.104 11.1695 24.9415 11.441 24.674 11.5085C24.6335 11.5195 24.5925 11.524 24.551 11.524ZM6.716 10.6155C6.6625 10.6155 6.6085 10.6065 6.555 10.5885C6.2935 10.5 6.1535 10.216 6.242 9.95451C6.3525 9.62951 6.478 9.30501 6.6155 8.99051C6.7265 8.73701 7.0205 8.62251 7.274 8.73251C7.527 8.84301 7.6425 9.13801 7.532 9.39101C7.4055 9.67951 7.2905 9.97751 7.1895 10.2755C7.118 10.484 6.9245 10.6155 6.716 10.6155ZM22.951 7.91901C22.7905 7.91901 22.6335 7.84201 22.5365 7.69901C22.3595 7.43801 22.1695 7.18351 21.9715 6.94301C21.796 6.73001 21.8265 6.41451 22.0395 6.23901C22.2525 6.06351 22.568 6.09401 22.7435 6.30701C22.961 6.57151 23.17 6.85101 23.3645 7.13851C23.5195 7.36701 23.4595 7.67801 23.231 7.83301C23.145 7.89101 23.048 7.91901 22.951 7.91901ZM8.614 7.15851C8.503 7.15851 8.391 7.12151 8.298 7.04551C8.084 6.87101 8.0525 6.55601 8.2275 6.34201C8.448 6.07201 8.682 5.81201 8.923 5.56951C9.118 5.37451 9.4345 5.37301 9.63 5.56751C9.826 5.76251 9.827 6.07851 9.6325 6.27451C9.4145 6.49401 9.202 6.72951 9.0015 6.97501C8.9035 7.09601 8.7595 7.15851 8.614 7.15851ZM20.155 5.14351C20.0615 5.14351 19.967 5.11751 19.883 5.06251C19.6215 4.89201 19.3485 4.73501 19.072 4.59551C18.826 4.47101 18.727 4.17051 18.8515 3.92401C18.976 3.67851 19.276 3.57801 19.523 3.70301C19.832 3.85851 20.1365 4.03401 20.4285 4.22451C20.66 4.37551 20.7255 4.68551 20.5745 4.91651C20.4785 5.06401 20.319 5.14351 20.155 5.14351ZM11.6645 4.66851C11.4825 4.66851 11.307 4.56901 11.2185 4.39551C11.093 4.14951 11.191 3.84851 11.437 3.72301C11.7485 3.56451 12.0705 3.42201 12.395 3.30101C12.653 3.20401 12.9415 3.33501 13.0385 3.59401C13.135 3.85251 13.004 4.14051 12.745 4.23751C12.456 4.34551 12.1685 4.47201 11.8905 4.61401C11.8185 4.65101 11.7405 4.66851 11.6645 4.66851ZM16.4675 3.79401C16.448 3.79401 16.4285 3.79301 16.409 3.79051C16.108 3.75551 15.802 3.73801 15.4995 3.73801C15.2235 3.73801 14.989 3.51401 14.989 3.23801C14.989 2.96201 15.2025 2.73801 15.4785 2.73801H15.4995C15.8405 2.73801 16.1855 2.75801 16.5245 2.79751C16.7985 2.82901 16.9955 3.07701 16.9635 3.35151C16.9345 3.60651 16.7175 3.79401 16.4675 3.79401Z" fill="#F4BF1A"/>
<path d="M3.249 14.5H0.25C0.26 14.8365 0.279 15.17 0.3095 15.5H3.311C3.28 15.17 3.2595 14.8365 3.249 14.5Z" fill="#DCA815"/>
<path d="M3.3635 12H0.365499C0.323999 12.3295 0.293999 12.6635 0.273499 13H3.273C3.294 12.6635 3.322 12.3295 3.3635 12Z" fill="#DCA815"/>
<path d="M3.524 17H0.523499C0.588499 17.338 0.663499 17.6715 0.748998 18H3.7485C3.6635 17.6715 3.589 17.338 3.524 17Z" fill="#DCA815"/>
<path d="M4.2235 19.5H1.2215C1.349 19.841 1.49 20.1735 1.64 20.5H4.64051C4.49051 20.174 4.351 19.8405 4.2235 19.5Z" fill="#DCA815"/>
<path d="M3.886 9.5H0.8895C0.792 9.8285 0.701 10.161 0.625 10.5H3.6285C3.7045 10.162 3.789 9.8275 3.886 9.5Z" fill="#DCA815"/>
<path d="M4.88199 7H1.88199C1.71699 7.3255 1.56149 7.6585 1.41949 8H4.42149C4.56349 7.659 4.71699 7.3255 4.88199 7Z" fill="#DCA815"/>
<path d="M6.9225 4H3.919C3.6345 4.318 3.364 4.6515 3.108 5H6.1105C6.367 4.6515 6.638 4.318 6.9225 4Z" fill="#DCA815"/>
<path d="M9.98 1.5H6.9735C6.4625 1.795 5.9725 2.129 5.5055 2.5H8.51C8.9775 2.129 9.4685 1.795 9.98 1.5Z" fill="#DCA815"/>
<path d="M5.7595 22.5H2.758C2.99 22.8465 3.235 23.18 3.494 23.5H6.4975C6.2385 23.18 5.992 22.8465 5.7595 22.5Z" fill="#DCA815"/>
<path d="M4.916 25C5.3175 25.3615 5.738 25.697 6.178 26H9.185C8.743 25.6965 8.318 25.363 7.915 25H4.916Z" fill="#DCA815"/>
</svg>
