<svg width="14" height="14" viewBox="0 0 14 14" fill="none" xmlns="http://www.w3.org/2000/svg">
<g clip-path="url(#clip0)">
<path d="M4.66667 2.19607C4.66667 1.43925 5.28239 0.823524 6.03922 0.823524C6.10636 0.823524 6.17233 0.828602 6.23695 0.837963C5.94163 1.21198 5.76471 1.68362 5.76471 2.19607V4.11764H6.58824V2.19607C6.58824 1.81305 6.74611 1.46634 7 1.21712C7.25389 1.46634 7.41176 1.81305 7.41176 2.19607V4.11764H6.58824V5.7647H5.76471V4.11764H4.66667V14H12.3721L11.9229 4.11764H10.2941V5.7647H9.47059V4.11764H8.23529V2.19607C8.23529 1.68362 8.05837 1.21198 7.76305 0.837963C7.76305 0.837963 7.85606 0.810649 8.08879 0.810649C8.84561 0.810649 9.47059 1.43925 9.47059 2.19607V4.11764H10.2941V2.19607C10.2941 0.985155 9.30896 -5.72205e-06 8.09804 -5.72205e-06H7.96078C7.61641 -5.72205e-06 7.2904 0.0798766 7 0.221771C6.7096 0.0798766 6.38359 -5.72205e-06 6.03922 -5.72205e-06C4.8283 -5.72205e-06 3.84314 0.985155 3.84314 2.19607V4.11764H4.66667V2.19607Z" fill="#FFD949"/>
<path d="M3.84314 4.11764H2.07713L1.62793 14H3.84314V4.11764Z" fill="#DCA815"/>
</g>
<defs>
<clipPath id="clip0">
<rect width="14" height="14" fill="white"/>
</clipPath>
</defs>
</svg>
